<svg xmlns="http://www.w3.org/2000/svg" version="1.1" width="192" height="192">
<path d="M0 0 C0.79921875 0.01804687 1.5984375 0.03609375 2.421875 0.0546875 C3.02515625 0.07789063 3.6284375 0.10109375 4.25 0.125 C6.21189209 3.7928852 7.64301257 6.99748551 8.25 11.125 C9.466875 10.83625 10.68375 10.5475 11.9375 10.25 C15.6514308 9.81461913 16.04522908 9.97142181 19.25 12.375 C21.94774783 16.193075 21.56498216 20.03259888 21.23046875 24.5390625 C21.2518967 27.3761226 21.63295567 28.80741204 23.25 31.125 C24.24 31.41375 25.23 31.7025 26.25 32 C29.25 33.125 29.25 33.125 30.6875 35.875 C31.4273748 40.14983218 30.68879922 43.41368303 29.625 47.5625 C29.13652642 50.9004028 29.66692908 53.82093146 30.25 57.125 C30.889375 57.228125 31.52875 57.33125 32.1875 57.4375 C32.868125 57.664375 33.54875 57.89125 34.25 58.125 C35.2202889 61.03586669 35.41467847 63.02723685 35.4375 66.0625 C35.45167969 66.91714844 35.46585937 67.77179688 35.48046875 68.65234375 C35.23358716 71.30109029 34.44450854 72.78246185 33.25 75.125 C32.93678061 77.3827941 32.93678061 77.3827941 33 79.6875 C32.99484375 80.45191406 32.9896875 81.21632813 32.984375 82.00390625 C33.1270439 84.42482762 33.1270439 84.42482762 35.25 87.125 C35.48046875 89.71875 35.48046875 89.71875 35.4375 92.625 C35.43105469 93.5840625 35.42460937 94.543125 35.41796875 95.53125 C35.19800993 98.92782337 34.80439498 100.62257955 32.25 102.9375 C29.65082453 105.78034817 29.39499404 107.28265782 29.25 111.125 C29.59791114 112.59003206 29.9752111 114.04826657 30.375 115.5 C31.68587221 120.5796298 30.45698673 123.45637423 28.25 128.125 C26.6 128.125 24.95 128.125 23.25 128.125 C21.38890693 132.3124594 21.23089599 135.63555077 21.4375 140.125 C21.49029875 143.97930869 21.50916438 146.7326389 19.25 149.9375 C16.05077089 152.27027123 15.61722655 152.42483521 11.9375 152 C10.720625 151.71125 9.50375 151.4225 8.25 151.125 C8.15203125 151.80046875 8.0540625 152.4759375 7.953125 153.171875 C6.73484848 160.43952456 6.73484848 160.43952456 4.4375 163.6875 C1.73747538 165.46180189 0.5175059 166.125 -2.75 166.125 C-5.85929087 164.99958327 -8.8032098 163.62086518 -11.75 162.125 C-12.08 163.445 -12.41 164.765 -12.75 166.125 C-18.14028127 166.4909457 -22.01207589 164.55529886 -26.859375 162.40625 C-29.84992813 161.03736065 -29.84992813 161.03736065 -33.4375 159.8125 C-35.75 158.125 -35.75 158.125 -36.32421875 156.1640625 C-36.625 153.9375 -36.625 153.9375 -36.75 150.125 C-37.49765625 149.9290625 -38.2453125 149.733125 -39.015625 149.53125 C-48.07469163 146.78032924 -48.07469163 146.78032924 -50.5625 142.4375 C-52.41221407 137.65314342 -51.19237823 133.86180426 -49.75 129.125 C-49.04653347 125.60766736 -48.6248285 122.91179227 -49.1875 119.375 C-51.0313615 116.71983944 -51.7436614 116.70433479 -54.75 115.875 C-58.45673035 114.69099902 -58.45673035 114.69099902 -59.75390625 112.1875 C-60.91718427 107.37169169 -61.10909004 102.92711813 -59.75 98.125 C-58.904375 97.238125 -58.05875 96.35125 -57.1875 95.4375 C-53.80710712 91.76058142 -54.00689433 87.80602232 -54.171875 83.00390625 C-54.94931335 79.13247339 -56.69716624 77.68273437 -59.4765625 75.046875 C-62.16652089 70.98718319 -60.64544437 65.66191816 -59.75 61.125 C-59.42 60.135 -59.09 59.145 -58.75 58.125 C-56.90234375 57.39453125 -56.90234375 57.39453125 -54.6875 56.9375 C-53.95402344 56.77894531 -53.22054687 56.62039062 -52.46484375 56.45703125 C-51.89894531 56.34746094 -51.33304688 56.23789063 -50.75 56.125 C-48.36740206 49.39766464 -48.50808649 44.37763063 -51.0625 37.6875 C-51.89430219 33.37725228 -51.41465572 31.11520487 -49.5078125 27.21484375 C-46.02273751 23.07147682 -40.78537515 21.70053405 -35.75 20.125 C-35.88921875 19.23748047 -35.88921875 19.23748047 -36.03125 18.33203125 C-36.26683871 15.75317624 -36.28843812 13.66335113 -35.75 11.125 C-33.48872047 8.64129953 -30.79306783 7.46651451 -27.75 6.125 C-26.54150391 5.5371875 -26.54150391 5.5371875 -25.30859375 4.9375 C-20.29152149 2.67628433 -16.25703478 1.71296384 -10.7578125 2.1796875 C-8.68362407 2.26522884 -8.68362407 2.26522884 -6.7890625 1.140625 C-4.35207579 -0.0731998 -2.70310553 -0.0795031 0 0 Z M-9.75 39.125 C-22.2837878 53.10360484 -25.46092981 71.94855521 -24.65673828 90.24707031 C-23.69268553 103.32492323 -20.90242872 115.60836694 -12.75 126.125 C-9.51513406 125.42322123 -7.85818805 124.76023506 -5.75 122.125 C-5.75 121.465 -5.75 120.805 -5.75 120.125 C-5.09 120.125 -4.43 120.125 -3.75 120.125 C7.12235144 101.18750261 8.78870252 79.04119727 3.25 58.125 C2.09524188 54.69612052 0.78985952 51.39798076 -0.75 48.125 C-1.04519531 47.43277344 -1.34039062 46.74054687 -1.64453125 46.02734375 C-2.93925884 43.79931429 -4.24183875 42.7971075 -6.375 41.375 C-7.00664063 40.94703125 -7.63828125 40.5190625 -8.2890625 40.078125 C-8.77117187 39.76359375 -9.25328125 39.4490625 -9.75 39.125 Z " fill="#2F4AA0" transform="translate(105.75,12.875)"/>
<path d="M0 0 C2.15164703 3.22747055 2.27245079 4.20505639 2.25 7.9375 C2.25773437 9.21947266 2.25773437 9.21947266 2.265625 10.52734375 C1.9834518 13.15404428 1.18322675 14.67052233 0 17 C-0.31321939 19.2577941 -0.31321939 19.2577941 -0.25 21.5625 C-0.25515625 22.32691406 -0.2603125 23.09132813 -0.265625 23.87890625 C-0.1229561 26.29982762 -0.1229561 26.29982762 2 29 C2.23046875 31.59375 2.23046875 31.59375 2.1875 34.5 C2.18105469 35.4590625 2.17460937 36.418125 2.16796875 37.40625 C1.94800993 40.80282337 1.55439498 42.49757955 -1 44.8125 C-3.59917547 47.65534817 -3.85500596 49.15765782 -4 53 C-3.65208886 54.46503206 -3.2747889 55.92326657 -2.875 57.375 C-1.56412779 62.4546298 -2.79301327 65.33137423 -5 70 C-6.65 70 -8.3 70 -10 70 C-11.86109307 74.1874594 -12.01910401 77.51055077 -11.8125 82 C-11.75970125 85.85430869 -11.74083562 88.6076389 -14 91.8125 C-17.19922911 94.14527123 -17.63277345 94.29983521 -21.3125 93.875 C-22.529375 93.58625 -23.74625 93.2975 -25 93 C-25.09796875 93.67546875 -25.1959375 94.3509375 -25.296875 95.046875 C-26.51515152 102.31452456 -26.51515152 102.31452456 -28.8125 105.5625 C-31.33324334 107.21898848 -32.98475776 107.84923789 -36 108 C-38.3125 107.0625 -38.3125 107.0625 -40 106 C-40 105.01 -40 104.02 -40 103 C-39.01 102.505 -39.01 102.505 -38 102 C-37.34227572 98.97065509 -37.34227572 98.97065509 -37 96 C-38.65 95.67 -40.3 95.34 -42 95 C-39.02450107 89.45541175 -35.52996974 84.67161516 -31.625 79.75 C-26.73277632 73.45922147 -22.34281894 67.27351294 -19 60 C-18.62617187 59.19691406 -18.25234375 58.39382812 -17.8671875 57.56640625 C-14.99746914 50.92353968 -13.44176513 44.07151469 -12 37 C-11.70609375 35.62328125 -11.70609375 35.62328125 -11.40625 34.21875 C-10.6231249 30.30312451 -10.00510383 26.62995866 -9.97265625 22.625 C-9.8709102 12.31473375 -6.75875908 7.45511608 0 0 Z " fill="#352892" transform="translate(139,71)"/>
<path d="M0 0 C2.92195671 -0.42760342 5.12351277 -0.49412703 7.74609375 0.984375 C17.92123513 9.05197039 21.70997012 21.48238548 23.58984375 33.89453125 C25.84877718 53.93865625 23.22242789 76.38927873 11 93 C8.17245261 96.47364545 5.88076806 98.74666082 1.33203125 99.359375 C-1.14457693 99.3733474 -3.53912243 99.26737905 -6 99 C-6 98.67 -6 98.34 -6 98 C-5.40832031 97.82984375 -4.81664063 97.6596875 -4.20703125 97.484375 C0.56818528 96.0198714 4.48905863 94.7237257 8 91 C9.34772903 87.87866256 9.34772903 87.87866256 10 85 C6.04 85 2.08 85 -2 85 C-1.34 83.35 -0.68 81.7 0 80 C7.34466401 58.88409097 8.46011928 37.94886678 0 17 C0 16.01 0 15.02 0 14 C5.445 13.505 5.445 13.505 11 13 C9.82779648 7.13898241 8.62286264 6.44448589 4 3 C2.824375 2.1028125 2.824375 2.1028125 1.625 1.1875 C1.08875 0.795625 0.5525 0.40375 0 0 Z " fill="#E2E6EC" transform="translate(105,46)"/>
<path d="M0 0 C1.34423912 4.03271737 1.71451921 7.78889743 1 12 C-1.5 14.5625 -1.5 14.5625 -4 16 C-3.01 16.33 -2.02 16.66 -1 17 C-1.66 18.32 -2.32 19.64 -3 21 C-6.12290635 20.51421457 -8.99580359 20.0013988 -12 19 C-14.92192797 23.79196188 -15.23526915 26.5442279 -14 32 C-13.67 32.99 -13.34 33.98 -13 35 C-12.61201798 40.72273473 -12.71153184 46.09428478 -16 51 C-17.9453125 52.01635742 -17.9453125 52.01635742 -20.125 52.73046875 C-20.84945312 52.97563232 -21.57390625 53.2207959 -22.3203125 53.47338867 C-22.87460937 53.64717041 -23.42890625 53.82095215 -24 54 C-24.09796875 55.19238281 -24.1959375 56.38476562 -24.296875 57.61328125 C-24.44695867 59.17977958 -24.59805316 60.7461813 -24.75 62.3125 C-24.811875 63.09818359 -24.87375 63.88386719 -24.9375 64.69335938 C-25.01484375 65.45068359 -25.0921875 66.20800781 -25.171875 66.98828125 C-25.2347168 67.68477783 -25.29755859 68.38127441 -25.36230469 69.09887695 C-26 71 -26 71 -30 74 C-26.7 74.33 -23.4 74.66 -20 75 C-21.08785904 79.35143616 -21.75586189 80.0207114 -25.0625 82.75 C-25.79597656 83.36359375 -26.52945313 83.9771875 -27.28515625 84.609375 C-28.13400391 85.29773438 -28.13400391 85.29773438 -29 86 C-28.34 86.66 -27.68 87.32 -27 88 C-26.2043473 93.09781024 -25.48137378 98.77558927 -28.49609375 103.19140625 C-32.91039157 107 -32.91039157 107 -36 107 C-35.67 108.32 -35.34 109.64 -35 111 C-35.99 110.67 -36.98 110.34 -38 110 C-40.15702109 104.87157231 -40.50588792 99.320804 -39 94 C-38.154375 93.113125 -37.30875 92.22625 -36.4375 91.3125 C-33.05710712 87.63558142 -33.25689433 83.68102232 -33.421875 78.87890625 C-34.19931335 75.00747339 -35.94716624 73.55773437 -38.7265625 70.921875 C-41.41652089 66.86218319 -39.89544437 61.53691816 -39 57 C-38.67 56.01 -38.34 55.02 -38 54 C-36.15234375 53.26953125 -36.15234375 53.26953125 -33.9375 52.8125 C-33.20402344 52.65394531 -32.47054687 52.49539062 -31.71484375 52.33203125 C-31.14894531 52.22246094 -30.58304688 52.11289063 -30 52 C-27.61740206 45.27266464 -27.75808649 40.25263063 -30.3125 33.5625 C-31.14430219 29.25225228 -30.66465572 26.99020487 -28.7578125 23.08984375 C-25.27273751 18.94647682 -20.03537515 17.57553405 -15 16 C-15.0928125 15.40832031 -15.185625 14.81664062 -15.28125 14.20703125 C-15.51786764 11.61691314 -15.55976453 9.54671498 -15 7 C-12.66821455 4.61715356 -10.02781056 3.33695531 -7 2 C-6.05125 1.566875 -5.1025 1.13375 -4.125 0.6875 C-2 0 -2 0 0 0 Z " fill="#AAAAAC" transform="translate(85,17)"/>
<path d="M0 0 C1.79244141 0.01740234 1.79244141 0.01740234 3.62109375 0.03515625 C5.41740234 0.04869141 5.41740234 0.04869141 7.25 0.0625 C8.17683594 0.07410156 9.10367188 0.08570312 10.05859375 0.09765625 C13.49435332 8.25758524 13.55239884 13.52520126 11.05859375 22.09765625 C10.58791538 26.80443998 11.33404136 29.2378737 14.05859375 33.09765625 C15.04859375 32.43765625 16.03859375 31.77765625 17.05859375 31.09765625 C20.74609375 31.47265625 20.74609375 31.47265625 24.05859375 32.09765625 C24.05859375 33.41765625 24.05859375 34.73765625 24.05859375 36.09765625 C18.83132102 41.09765625 18.83132102 41.09765625 16.05859375 41.09765625 C16.05859375 41.75765625 16.05859375 42.41765625 16.05859375 43.09765625 C17.37859375 43.42765625 18.69859375 43.75765625 20.05859375 44.09765625 C20.05859375 44.75765625 20.05859375 45.41765625 20.05859375 46.09765625 C13.34950284 44.97947443 13.34950284 44.97947443 11.05859375 43.09765625 C10.39595757 40.39741381 10.23897321 37.89353786 10.05859375 35.09765625 C9.3109375 34.90171875 8.56328125 34.70578125 7.79296875 34.50390625 C-1.26609788 31.75298549 -1.26609788 31.75298549 -3.75390625 27.41015625 C-5.60309906 22.62714793 -4.38598435 18.83313712 -2.94140625 14.09765625 C-1.90487335 9.00136951 -1.93906112 5.92684157 -3.94140625 1.09765625 C-2.94140625 0.09765625 -2.94140625 0.09765625 0 0 Z " fill="#9D9EA0" transform="translate(58.94140625,127.90234375)"/>
<path d="M0 0 C2.97 0 5.94 0 9 0 C6.50727561 3.20493136 4.02318663 6.27913203 1 9 C0.34 9 -0.32 9 -1 9 C-0.649375 9.825 -0.29875 10.65 0.0625 11.5 C0 15 0 15 -1.90234375 17.07421875 C-3.53904999 18.47304667 -5.20474502 19.83870856 -6.8984375 21.16796875 C-9.25034237 22.90550955 -9.25034237 22.90550955 -10 26 C-6.37 26 -2.74 26 1 26 C1 26.99 1 27.98 1 29 C-0.32 29.99 -1.64 30.98 -3 32 C0.3 32.33 3.6 32.66 7 33 C5.91214096 37.35143616 5.24413811 38.0207114 1.9375 40.75 C0.83728516 41.67039062 0.83728516 41.67039062 -0.28515625 42.609375 C-1.13400391 43.29773438 -1.13400391 43.29773438 -2 44 C-1.34 44.66 -0.68 45.32 0 46 C0.7956527 51.09781024 1.51862622 56.77558927 -1.49609375 61.19140625 C-5.91039157 65 -5.91039157 65 -9 65 C-8.67 66.32 -8.34 67.64 -8 69 C-8.99 68.67 -9.98 68.34 -11 68 C-13.15702109 62.87157231 -13.50588792 57.320804 -12 52 C-11.154375 51.113125 -10.30875 50.22625 -9.4375 49.3125 C-6.05710712 45.63558142 -6.25689433 41.68102232 -6.421875 36.87890625 C-7.19931335 33.00747339 -8.94716624 31.55773437 -11.7265625 28.921875 C-14.41652089 24.86218319 -12.89544437 19.53691816 -12 15 C-11.67 14.01 -11.34 13.02 -11 12 C-9.081875 11.7215625 -9.081875 11.7215625 -7.125 11.4375 C-4.9166303 11.10258811 -4.9166303 11.10258811 -3 10 C-1.3645847 6.78795883 -0.62628019 3.53587356 0 0 Z " fill="#DFDFDF" transform="translate(58,59)"/>
<path d="M0 0 C0 3.63858038 -0.83617562 4.48359832 -2.9921875 7.34375 C-3.61480469 8.17777344 -4.23742187 9.01179687 -4.87890625 9.87109375 C-5.53761719 10.73863281 -6.19632813 11.60617188 -6.875 12.5 C-8.16447101 14.21844354 -9.45355016 15.93718121 -10.7421875 17.65625 C-11.60626221 18.79803711 -11.60626221 18.79803711 -12.48779297 19.96289062 C-13.70784795 21.60643901 -14.86458609 23.29687913 -16 25 C-14.68 25.66 -13.36 26.32 -12 27 C-12 28.98 -12 30.96 -12 33 C-13.485 33.495 -13.485 33.495 -15 34 C-15 34.66 -15 35.32 -15 36 C-16.65 35.67 -18.3 35.34 -20 35 C-20.33 36.32 -20.66 37.64 -21 39 C-26.27323808 39.68041782 -30.39388711 37.24786337 -35 35 C-35 34.01 -35 33.02 -35 32 C-36.32 31.67 -37.64 31.34 -39 31 C-39 30.34 -39 29.68 -39 29 C-36.99534779 27.3533214 -34.88036013 25.91691676 -32.75 24.4375 C-32.1725 23.963125 -31.595 23.48875 -31 23 C-31 22.34 -31 21.68 -31 21 C-32.98 20.34 -34.96 19.68 -37 19 C-36.01 18.01 -35.02 17.02 -34 16 C-30.30581799 17.231394 -28.64890254 19.20791354 -26 22 C-24.15895764 19.54735411 -22.32852207 17.08699041 -20.5 14.625 C-19.97535156 13.92632812 -19.45070313 13.22765625 -18.91015625 12.5078125 C-18.16572266 11.50234375 -18.16572266 11.50234375 -17.40625 10.4765625 C-16.94541016 9.85861816 -16.48457031 9.24067383 -16.00976562 8.60400391 C-14.82241608 7.0338057 -14.82241608 7.0338057 -15 5 C-14.33613281 4.97421875 -13.67226562 4.9484375 -12.98828125 4.921875 C-7.45558259 4.56648998 -4.03433925 4.16881722 0 0 Z " fill="#2C63AB" transform="translate(114,140)"/>
<path d="M0 0 C4.29 0 8.58 0 13 0 C15.41112739 2.41112739 14.18546779 8.63565472 14.1875 11.875 C14.19974609 12.89464844 14.21199219 13.91429688 14.22460938 14.96484375 C14.22750977 16.43244141 14.22750977 16.43244141 14.23046875 17.9296875 C14.23457764 18.82929199 14.23868652 19.72889648 14.24291992 20.65576172 C14 23 14 23 12 26 C8.04 26 4.08 26 0 26 C0 17.42 0 8.84 0 0 Z " fill="#6A6A6A" transform="translate(111,83)"/>
<path d="M0 0 C2.7080142 2.33085345 3.62208867 4.26440277 4.5625 7.6875 C4.92988281 9.01587891 4.92988281 9.01587891 5.3046875 10.37109375 C5.53414062 11.23863281 5.76359375 12.10617188 6 13 C6.20882812 13.73347656 6.41765625 14.46695313 6.6328125 15.22265625 C7.78372621 19.42916481 8 22.5157934 8 27 C1.07 26.505 1.07 26.505 -6 26 C-6.39832031 24.46279297 -6.39832031 24.46279297 -6.8046875 22.89453125 C-7.16129028 21.53381011 -7.51807051 20.17313547 -7.875 18.8125 C-8.04902344 18.13896484 -8.22304687 17.46542969 -8.40234375 16.77148438 C-9.17492733 13.83852818 -9.99477136 11.01292735 -11.1328125 8.19921875 C-12 6 -12 6 -12 3 C-11.21753906 2.95101562 -10.43507813 2.90203125 -9.62890625 2.8515625 C-8.61699219 2.77679688 -7.60507813 2.70203125 -6.5625 2.625 C-5.55316406 2.55539063 -4.54382813 2.48578125 -3.50390625 2.4140625 C-2.26447266 2.20910156 -2.26447266 2.20910156 -1 2 C-0.67 1.34 -0.34 0.68 0 0 Z " fill="#DFDFDF" transform="translate(117,57)"/>
<path d="M0 0 C4.62 0 9.24 0 14 0 C13.22543725 9.60457806 11.16628765 17.8051989 6 26 C5.67 25.01 5.34 24.02 5 23 C1.04 23 -2.92 23 -7 23 C-6.34 21.35 -5.68 19.7 -5 18 C-4.29160831 15.84007363 -3.60510219 13.67288012 -2.9375 11.5 C-2.59589844 10.3965625 -2.25429687 9.293125 -1.90234375 8.15625 C-1.13496042 5.47206936 -0.54750142 2.73750709 0 0 Z " fill="#E1E1E1" transform="translate(110,108)"/>
<path d="M0 0 C3.03125 3.6328125 3.03125 3.6328125 2.75 6.9375 C2.30048596 8.77301565 1.84436899 10.60696093 1.375 12.4375 C0.88652642 15.7754028 1.41692908 18.69593146 2 22 C2.99 22.33 3.98 22.66 5 23 C4.59007812 23.59167969 4.18015625 24.18335937 3.7578125 24.79296875 C2.94957031 25.97826172 2.94957031 25.97826172 2.125 27.1875 C1.32449219 28.35345703 1.32449219 28.35345703 0.5078125 29.54296875 C-2.30202944 34.12170082 -3.27213412 37.96070088 -3.625 43.3125 C-3.69976562 44.38113281 -3.77453125 45.44976562 -3.8515625 46.55078125 C-3.90054688 47.35902344 -3.94953125 48.16726562 -4 49 C-4.33 49 -4.66 49 -5 49 C-5.05945801 48.17145508 -5.05945801 48.17145508 -5.12011719 47.32617188 C-6.03117026 35.17544196 -7.5887395 23.70757852 -11 12 C-10.34 12 -9.68 12 -9 12 C-7.37643654 10.03062339 -5.86440434 8.06654852 -4.375 6 C-3.95476562 5.42765625 -3.53453125 4.8553125 -3.1015625 4.265625 C-2.06194199 2.84796067 -1.03022409 1.42450738 0 0 Z " fill="#2976B5" transform="translate(134,48)"/>
<path d="M0 0 C3.48042706 5.22064059 3.68251234 10.16428064 2.609375 16.1953125 C1.67787177 19.43168912 0.99542518 21.41295438 -1.98046875 23.16796875 C-4.1875 24 -4.1875 24 -8 25 C-8.66 29.62 -9.32 34.24 -10 39 C-13.63 39 -17.26 39 -21 39 C-19.91350228 34.6540091 -19.31224172 34.06028168 -16 31.375 C-13.04427685 29.05444701 -13.04427685 29.05444701 -11 26 C-11.66 25.67 -12.32 25.34 -13 25 C-12.67 24.01 -12.34 23.02 -12 22 C-11.34 22 -10.68 22 -10 22 C-9.773125 21.4225 -9.54625 20.845 -9.3125 20.25 C-7.66961977 17.4336339 -5.60466773 15.91922886 -3 14 C-5.64 13.67 -8.28 13.34 -11 13 C-9.65277674 8.95833023 -7.33839482 7.93084947 -3.91015625 5.59765625 C-1.85683283 3.88025486 -1.01156496 2.45211819 0 0 Z " fill="#BFBFC0" transform="translate(69,46)"/>
<path d="M0 0 C1.85772162 0.08984301 3.71247985 0.24611861 5.5625 0.4375 C7.08037109 0.59025391 7.08037109 0.59025391 8.62890625 0.74609375 C9.80259766 0.87177734 9.80259766 0.87177734 11 1 C8.03 4.96 8.03 4.96 5 9 C7.64 9.66 10.28 10.32 13 11 C11.62845314 14.18419421 10.13830017 15.97112596 7.4375 18.125 C4.78974334 20.20903634 4.78974334 20.20903634 3 23 C7.455 23.99 7.455 23.99 12 25 C11.67 26.65 11.34 28.3 11 30 C10.34 30 9.68 30 9 30 C9 30.99 9 31.98 9 33 C2.95487247 32.06998038 2.95487247 32.06998038 0.57421875 29.40234375 C-1.65791499 25.54405072 -2.30056941 22.80895861 -1.3125 18.4375 C-0.88705755 16.95482033 -0.45007367 15.47538943 0 14 C1.0365329 8.90371326 1.00234513 5.82918532 -1 1 C-0.67 0.67 -0.34 0.34 0 0 Z " fill="#DADADA" transform="translate(56,128)"/>
<path d="M0 0 C3.09123776 1.51407564 5.08116375 3.12411455 7 6 C8.04088424 11.721855 8.92808451 19.02224198 5.63671875 24.10546875 C4.55222883 25.11231023 3.45187952 26.10235375 2.3359375 27.07421875 C-0.70149045 31.45273331 0.61842087 37.90521205 1 43 C-5.4 44.23076923 -5.4 44.23076923 -8.4375 43.0625 C-9.2109375 42.5365625 -9.2109375 42.5365625 -10 42 C-10 41.01 -10 40.02 -10 39 C-8.28515625 37.8515625 -8.28515625 37.8515625 -6.0625 36.625 C-2.93432976 34.4623144 -2.11242225 33.4892989 -1.24609375 29.71875 C-1.02304205 26.46148711 -0.92253369 23.26326834 -1 20 C-1.99 19.67 -2.98 19.34 -4 19 C-1.93432136 16.24576181 -0.02306625 14.01823843 2.6875 11.875 C5.25247789 10.13879023 5.25247789 10.13879023 6 7 C2.37 7 -1.26 7 -5 7 C-4.01 5.68 -3.02 4.36 -2 3 C-1.34 3 -0.68 3 0 3 C0 2.01 0 1.02 0 0 Z " fill="#AFAFB0" transform="translate(59,85)"/>
<path d="M0 0 C-1.55500981 3.81684226 -4.03595495 6.19195732 -7 9 C-5.02 9 -3.04 9 -1 9 C-1.08285511 11.81707371 -1.57675739 13.53443313 -3.484375 15.6328125 C-6.57259418 18.3646987 -8.8753214 20.23515894 -13 21 C-14.78230153 16.81508611 -16.3911368 12.9704998 -15.484375 8.40234375 C-14.04612959 4.89234008 -12.86134516 2.58198997 -9.6875 0.4375 C-6.41787923 -0.09476385 -3.30634337 -0.12966052 0 0 Z " fill="#E5E5E5" transform="translate(70,36)"/>
<path d="M0 0 C3.25 1.75 3.25 1.75 6 4 C7.2065625 4.9590625 7.2065625 4.9590625 8.4375 5.9375 C8.953125 6.618125 9.46875 7.29875 10 8 C9.67 9.65 9.34 11.3 9 13 C3.06 13.495 3.06 13.495 -3 14 C-3.33 12.68 -3.66 11.36 -4 10 C-5.88316159 8.89163577 -5.88316159 8.89163577 -8 8 C-9.75 6.5625 -9.75 6.5625 -11 5 C-11 4.01 -11 3.02 -11 2 C-7.29286166 -0.47142556 -4.30014075 -0.66909211 0 0 Z " fill="#343437" transform="translate(107,47)"/>
<path d="M0 0 C10.05859375 -0.09765625 10.05859375 -0.09765625 13 0 C14 1 14 1 14.09765625 3.72265625 C14.04882812 8.36132812 14.04882812 8.36132812 14 13 C9.71 13 5.42 13 1 13 C0.67 8.71 0.34 4.42 0 0 Z " fill="#3D3D3D" transform="translate(111,83)"/>
<path d="M0 0 C0.33 0 0.66 0 1 0 C2.16178369 11.3854802 -3.22875934 24.04395017 -10 33 C-12.83502629 36.47046321 -15.11536623 38.74614011 -19.66796875 39.359375 C-22.14457693 39.3733474 -24.53912243 39.26737905 -27 39 C-27 38.67 -27 38.34 -27 38 C-26.40832031 37.82984375 -25.81664063 37.6596875 -25.20703125 37.484375 C-17.03009552 34.97660352 -12.79352539 31.62917136 -8.484375 24.19921875 C-6.0321707 18.91407317 -4.58023735 13.37337206 -3.078125 7.7578125 C-2.25681689 4.89513713 -1.47278492 2.55729018 0 0 Z " fill="#F4F4F7" transform="translate(126,106)"/>
<path d="M0 0 C2.97 0 5.94 0 9 0 C6.50727561 3.20493136 4.02318663 6.27913203 1 9 C0.34 9 -0.32 9 -1 9 C-0.67 10.65 -0.34 12.3 0 14 C-1.62017842 15.33918806 -3.24629343 16.6711969 -4.875 18 C-6.23238281 19.11375 -6.23238281 19.11375 -7.6171875 20.25 C-10 22 -10 22 -12 22 C-12.125 15.375 -12.125 15.375 -11 12 C-9.081875 11.7215625 -9.081875 11.7215625 -7.125 11.4375 C-4.9166303 11.10258811 -4.9166303 11.10258811 -3 10 C-1.3645847 6.78795883 -0.62628019 3.53587356 0 0 Z " fill="#E6E6E6" transform="translate(58,59)"/>
<path d="M0 0 C1.85772162 0.08984301 3.71247985 0.24611861 5.5625 0.4375 C7.08037109 0.59025391 7.08037109 0.59025391 8.62890625 0.74609375 C9.80259766 0.87177734 9.80259766 0.87177734 11 1 C8.03 4.96 8.03 4.96 5 9 C6.65 9.33 8.3 9.66 10 10 C8.63088196 13.1489715 7.1247864 15.0478487 4.5 17.25 C3.8915625 17.77078125 3.283125 18.2915625 2.65625 18.828125 C1 20 1 20 -1 20 C-0.855625 19.154375 -0.71125 18.30875 -0.5625 17.4375 C-0.376875 16.303125 -0.19125 15.16875 0 14 C0.226875 12.845 0.45375 11.69 0.6875 10.5 C1.02392802 6.73200623 0.43563995 4.46242577 -1 1 C-0.67 0.67 -0.34 0.34 0 0 Z " fill="#E7E7E7" transform="translate(56,128)"/>
<path d="M0 0 C0.33 0.99 0.66 1.98 1 3 C2.32 3 3.64 3 5 3 C3.50800436 6.56153799 1.48557304 8.68403747 -1.375 11.25 C-2.14585938 11.95640625 -2.91671875 12.6628125 -3.7109375 13.390625 C-6 15 -6 15 -10 15 C-10.4904698 11.87325503 -10.69675416 9.10419579 -10 6 C-7.63268445 3.68132792 -5.00363991 2.35103482 -2 1 C-1.34 0.67 -0.68 0.34 0 0 Z " fill="#E8E8E8" transform="translate(80,18)"/>
<path d="M0 0 C2 3 2 3 2 5 C2.99 5.33 3.98 5.66 5 6 C4.38511719 6.88751953 4.38511719 6.88751953 3.7578125 7.79296875 C2.94957031 8.97826172 2.94957031 8.97826172 2.125 10.1875 C1.59132812 10.96480469 1.05765625 11.74210937 0.5078125 12.54296875 C-2.30202944 17.12170082 -3.27213412 20.96070088 -3.625 26.3125 C-3.69976562 27.38113281 -3.77453125 28.44976562 -3.8515625 29.55078125 C-3.90054688 30.35902344 -3.94953125 31.16726562 -4 32 C-4.33 32 -4.66 32 -5 32 C-5.39111678 27.66977851 -5.70864014 23.33802455 -6 19 C-6.09152344 17.91460937 -6.18304688 16.82921875 -6.27734375 15.7109375 C-6.55611105 10.33956751 -6.58949627 6.95604504 -3 2.75 C-2.02734736 1.80436549 -1.03605339 0.8757118 0 0 Z " fill="#3149A0" transform="translate(134,65)"/>
<path d="M0 0 C0 1.32 0 2.64 0 4 C-5.22727273 9 -5.22727273 9 -8 9 C-8 9.66 -8 10.32 -8 11 C-6.68 11.33 -5.36 11.66 -4 12 C-4 12.66 -4 13.32 -4 14 C-7.34373475 13.44271087 -10.03312999 12.64826111 -13 11 C-13.51525424 5.84745763 -13.51525424 5.84745763 -13 3 C-8.73297242 -1.26702758 -5.72019718 -1.37284732 0 0 Z " fill="#E4E5E5" transform="translate(83,160)"/>
<path d="M0 0 C3 1 3 1 4.67578125 3.07421875 C6.32604856 6.72038457 6.33357162 9.89852958 6.1875 13.8125 C6.17396484 14.50537109 6.16042969 15.19824219 6.14648438 15.91210938 C6.11138845 17.60841265 6.05758943 19.30431136 6 21 C3.69 20.34 1.38 19.68 -1 19 C-1 18.01 -1 17.02 -1 16 C-2.32 15.67 -3.64 15.34 -5 15 C-5 14.34 -5 13.68 -5 13 C-2.99534779 11.3533214 -0.88036013 9.91691676 1.25 8.4375 C1.8275 7.963125 2.405 7.48875 3 7 C3 6.34 3 5.68 3 5 C1.02 4.34 -0.96 3.68 -3 3 C-2.01 2.01 -1.02 1.02 0 0 Z " fill="#A8ABAC" transform="translate(80,156)"/>
<path d="M0 0 C2.12438339 -0.08078641 4.2496323 -0.13909141 6.375 -0.1875 C7.55835937 -0.22230469 8.74171875 -0.25710937 9.9609375 -0.29296875 C11.46527344 -0.14794922 11.46527344 -0.14794922 13 0 C15 3 15 3 15 9 C8.07 8.505 8.07 8.505 1 8 C0.67 5.36 0.34 2.72 0 0 Z " fill="#A6A6A6" transform="translate(110,75)"/>
<path d="M0 0 C2.31 0 4.62 0 7 0 C6.13890625 0.97195312 5.2778125 1.94390625 4.390625 2.9453125 C0.25643718 7.76691228 -3.26416048 12.97858041 -6.8515625 18.2109375 C-7.35945313 18.943125 -7.86734375 19.6753125 -8.390625 20.4296875 C-8.84469727 21.09210449 -9.29876953 21.75452148 -9.76660156 22.43701172 C-11 24 -11 24 -13 25 C-13.33 21.7 -13.66 18.4 -14 15 C-12.515 15.99 -12.515 15.99 -11 17 C-9.15895764 14.54735411 -7.32852207 12.08699041 -5.5 9.625 C-4.97535156 8.92632812 -4.45070313 8.22765625 -3.91015625 7.5078125 C-3.41386719 6.8375 -2.91757813 6.1671875 -2.40625 5.4765625 C-1.71499023 4.549646 -1.71499023 4.549646 -1.00976562 3.60400391 C0.17758392 2.0338057 0.17758392 2.0338057 0 0 Z " fill="#2B7DB8" transform="translate(99,145)"/>
<path d="M0 0 C4.29 0 8.58 0 13 0 C12 6 12 6 9.4375 8.375 C8.633125 8.91125 7.82875 9.4475 7 10 C7 9.01 7 8.02 7 7 C4.02148438 7.04882812 4.02148438 7.04882812 1.04296875 7.09765625 C-1 7 -1 7 -4 6 C-4 5.34 -4 4.68 -4 4 C-3.34 4 -2.68 4 -2 4 C-2 3.34 -2 2.68 -2 2 C-1.34 2 -0.68 2 0 2 C0 1.34 0 0.68 0 0 Z " fill="#696969" transform="translate(102,131)"/>
<path d="M0 0 C4.62 0 9.24 0 14 0 C13.125 6.875 13.125 6.875 12 8 C9.81360547 8.07258946 7.62499611 8.08373783 5.4375 8.0625 C3.64119141 8.04896484 3.64119141 8.04896484 1.80859375 8.03515625 C0.88175781 8.02355469 -0.04507813 8.01195313 -1 8 C-0.67 5.36 -0.34 2.72 0 0 Z " fill="#B1B1B1" transform="translate(110,108)"/>
<path d="M0 0 C1.32 0.99 2.64 1.98 4 3 C3.67 4.65 3.34 6.3 3 8 C-2.94 8.495 -2.94 8.495 -9 9 C-9.33 7.68 -9.66 6.36 -10 5 C-10.99 4.67 -11.98 4.34 -13 4 C-12.67 3.34 -12.34 2.68 -12 2 C-8.04 2 -4.08 2 0 2 C0 1.34 0 0.68 0 0 Z " fill="#5D5D5D" transform="translate(113,52)"/>
<path d="M0 0 C0.33 0 0.66 0 1 0 C0.125 6.875 0.125 6.875 -1 8 C-3.01964199 8.07244053 -5.04167124 8.08377188 -7.0625 8.0625 C-8.16722656 8.05347656 -9.27195312 8.04445313 -10.41015625 8.03515625 C-11.69212891 8.01775391 -11.69212891 8.01775391 -13 8 C-13 6.02 -13 4.04 -13 2 C-8.71 2 -4.42 2 0 2 C0 1.34 0 0.68 0 0 Z " fill="#878787" transform="translate(124,101)"/>
<path d="M0 0 C5.94 0.99 5.94 0.99 12 2 C11.67 3.32 11.34 4.64 11 6 C8.51245214 7.24377393 6.77344699 7.13306235 4 7.125 C3.113125 7.12757813 2.22625 7.13015625 1.3125 7.1328125 C-1 7 -1 7 -3 6 C-2.67 4.68 -2.34 3.36 -2 2 C-1.34 2 -0.68 2 0 2 C0 1.34 0 0.68 0 0 Z " fill="#353636" transform="translate(97,136)"/>
<path d="M0 0 C0 1.65 0 3.3 0 5 C-0.99 5.33 -1.98 5.66 -3 6 C-4.20882096 8.00016466 -4.20882096 8.00016466 -5 10 C-6.32 10 -7.64 10 -9 10 C-11 7 -11 7 -11.0625 5 C-8.94335706 1.01102506 -4.2580475 0 0 0 Z " fill="#BABABD" transform="translate(104,13)"/>
<path d="M0 0 C2.14576637 -0.02685938 4.29162645 -0.04633088 6.4375 -0.0625 C7.63246094 -0.07410156 8.82742187 -0.08570312 10.05859375 -0.09765625 C13 0 13 0 14 1 C14 2.65 14 4.3 14 6 C9.71 5.67 5.42 5.34 1 5 C0.67 3.35 0.34 1.7 0 0 Z " fill="#5D5D5D" transform="translate(111,83)"/>
<path d="M0 0 C0.33 0 0.66 0 1 0 C1.92017937 8.4690583 1.92017937 8.4690583 -0.3359375 12.22265625 C-1.81972046 13.91890579 -3.32453303 15.49407433 -5 17 C-6.23193224 13.30420329 -6.72056792 9.83528087 -6 6 C-3.5625 3.625 -3.5625 3.625 -1 2 C-0.67 1.34 -0.34 0.68 0 0 Z " fill="#8C8C8F" transform="translate(65,97)"/>
<path d="M0 0 C1.2494272 2.49885439 0.84649652 3.53196126 0.375 6.25 C-0.20373886 10.67270811 0.55236226 13.18168512 3 17 C0.39417629 17.93065133 -0.64198224 18.14917407 -3.25 17.0625 C-4.11625 16.5365625 -4.11625 16.5365625 -5 16 C-5 15.01 -5 14.02 -5 13 C-4.34 12.67 -3.68 12.34 -3 12 C-2.34786708 9.97536745 -2.34786708 9.97536745 -2 8 C-3.32 7.67 -4.64 7.34 -6 7 C-6 6.34 -6 5.68 -6 5 C-4.04072937 3.2856382 -2.04119788 1.61594832 0 0 Z " fill="#878A8C" transform="translate(70,145)"/>
<path d="M0 0 C4.62 0 9.24 0 14 0 C13 5 13 5 11 7 C11 6.01 11 5.02 11 4 C7.04 4 3.08 4 -1 4 C-0.67 2.68 -0.34 1.36 0 0 Z " fill="#A7A7A7" transform="translate(104,127)"/>
<path d="M0 0 C1.85772162 0.08984301 3.71247985 0.24611861 5.5625 0.4375 C7.08037109 0.59025391 7.08037109 0.59025391 8.62890625 0.74609375 C9.80259766 0.87177734 9.80259766 0.87177734 11 1 C10.07456291 2.34173403 9.13422595 3.67320159 8.1875 5 C7.40439453 6.11375 7.40439453 6.11375 6.60546875 7.25 C6.07566406 7.8275 5.54585937 8.405 5 9 C4.01 9 3.02 9 2 9 C1.01 6.36 0.02 3.72 -1 1 C-0.67 0.67 -0.34 0.34 0 0 Z " fill="#DDDDDD" transform="translate(56,128)"/>
<path d="M0 0 C0.33 0 0.66 0 1 0 C2.06766508 11.42232168 2.06766508 11.42232168 -0.48828125 15.19921875 C-4.93326271 19 -4.93326271 19 -8 19 C-7.67 20.32 -7.34 21.64 -7 23 C-7.99 22.67 -8.98 22.34 -10 22 C-10.6875 19.9375 -10.6875 19.9375 -11 18 C-9.71283353 16.99421411 -8.42011342 15.99553202 -7.125 15 C-6.40570313 14.443125 -5.68640625 13.88625 -4.9453125 13.3125 C-3 12 -3 12 -1 12 C-0.67 8.04 -0.34 4.08 0 0 Z " fill="#CECECE" transform="translate(57,105)"/>
<path d="M0 0 C2 2 2 2 2 6 C-0.56893838 7.28446919 -2.76576337 7.32977144 -5.625 7.5625 C-6.62789063 7.64628906 -7.63078125 7.73007813 -8.6640625 7.81640625 C-9.43492188 7.87699219 -10.20578125 7.93757813 -11 8 C-11.33 6.35 -11.66 4.7 -12 3 C-11.21753906 2.95101562 -10.43507813 2.90203125 -9.62890625 2.8515625 C-8.61699219 2.77679688 -7.60507813 2.70203125 -6.5625 2.625 C-5.55316406 2.55539063 -4.54382813 2.48578125 -3.50390625 2.4140625 C-2.26447266 2.20910156 -2.26447266 2.20910156 -1 2 C-0.67 1.34 -0.34 0.68 0 0 Z " fill="#9E9E9E" transform="translate(117,57)"/>
<path d="M0 0 C0 3.63 0 7.26 0 11 C-2.31 10.34 -4.62 9.68 -7 9 C-7.3125 6.75 -7.3125 6.75 -7 4 C-2.89189189 0 -2.89189189 0 0 0 Z " fill="#939798" transform="translate(86,166)"/>
<path d="M0 0 C1.98 0 3.96 0 6 0 C6 1.98 6 3.96 6 6 C5.01 6.33 4.02 6.66 3 7 C3 7.66 3 8.32 3 9 C1.35 8.67 -0.3 8.34 -2 8 C-1.125 2.25 -1.125 2.25 0 0 Z " fill="#969798" transform="translate(96,167)"/>
<path d="M0 0 C4.62 0 9.24 0 14 0 C14.33 1.65 14.66 3.3 15 5 C8.07 4.505 8.07 4.505 1 4 C0.67 2.68 0.34 1.36 0 0 Z " fill="#C7C7C7" transform="translate(109,71)"/>
<path d="M0 0 C0.99 0.99 1.98 1.98 3 3 C2.08877273 4.10865985 1.17073341 5.21172219 0.25 6.3125 C-0.26046875 6.92738281 -0.7709375 7.54226562 -1.296875 8.17578125 C-3.89951408 10.96347036 -5.68718973 12.85081701 -9.578125 13.29296875 C-10.45984375 13.25816406 -11.3415625 13.22335938 -12.25 13.1875 C-13.14203125 13.16042969 -14.0340625 13.13335937 -14.953125 13.10546875 C-15.62859375 13.07066406 -16.3040625 13.03585938 -17 13 C-17 12.67 -17 12.34 -17 12 C-16.11248047 11.74476563 -16.11248047 11.74476563 -15.20703125 11.484375 C-9.10011523 9.61145459 -4.82021137 7.76170001 -1.1875 2.25 C-0.795625 1.5075 -0.40375 0.765 0 0 Z " fill="#E7E7ED" transform="translate(116,132)"/>
<path d="M0 0 C0.33 0.66 0.66 1.32 1 2 C0.01 3.485 0.01 3.485 -1 5 C-4.0390625 5.29296875 -4.0390625 5.29296875 -7.625 5.1875 C-8.81351562 5.16042969 -10.00203125 5.13335937 -11.2265625 5.10546875 C-12.59941406 5.05326172 -12.59941406 5.05326172 -14 5 C-13.67 3.68 -13.34 2.36 -13 1 C-6.565 0.505 -6.565 0.505 0 0 Z " fill="#CECECE" transform="translate(122,115)"/>
<path d="M0 0 C-1.14398915 3.43196745 -2.02494226 4.04748538 -4.875 6.125 C-5.57367188 6.64320312 -6.27234375 7.16140625 -6.9921875 7.6953125 C-9 9 -9 9 -12 10 C-11.3001048 6.85047161 -10.34839851 3.9347497 -9 1 C-6.04335481 -0.4783226 -3.25770263 -0.06032783 0 0 Z " fill="#E7E7E7" transform="translate(67,37)"/>
<path d="M0 0 C4.29 0 8.58 0 13 0 C13.33 1.65 13.66 3.3 14 5 C7.07 4.505 7.07 4.505 0 4 C0 2.68 0 1.36 0 0 Z " fill="#828282" transform="translate(111,79)"/>
<path d="M0 0 C3.26566506 4.89849759 3.09311493 8.31998909 3 14 C2.67 13.34 2.34 12.68 2 12 C-0.64 12 -3.28 12 -6 12 C-5.38125 11.13375 -4.7625 10.2675 -4.125 9.375 C-2.15345216 6.24371814 -1.01033009 3.53615531 0 0 Z " fill="#98979C" transform="translate(69,46)"/>
<path d="M0 0 C-0.875 3.875 -0.875 3.875 -2 5 C-2.23527773 7.34987262 -2.41386417 9.70556039 -2.5625 12.0625 C-2.64628906 13.35285156 -2.73007813 14.64320312 -2.81640625 15.97265625 C-2.87699219 16.97167969 -2.93757813 17.97070312 -3 19 C-6 20 -6 20 -8.1875 19.0625 C-9.0846875 18.5365625 -9.0846875 18.5365625 -10 18 C-8.71034824 16.62437146 -7.37310707 15.29233607 -6 14 C-5.34 14 -4.68 14 -4 14 C-4.33 10.04 -4.66 6.08 -5 2 C-2 0 -2 0 0 0 Z " fill="#544A85" transform="translate(90,15)"/>
<path d="M0 0 C2 3 2 3 2 7 C-2.62 7.33 -7.24 7.66 -12 8 C-12 6.68 -12 5.36 -12 4 C-6.06 3.505 -6.06 3.505 0 3 C0 2.01 0 1.02 0 0 Z " fill="#C3C3C3" transform="translate(119,60)"/>
<path d="M0 0 C2.97 0 5.94 0 9 0 C9.36923077 5.41538462 9.36923077 5.41538462 7.5 8.375 C7.005 8.91125 6.51 9.4475 6 10 C4.35 9.67 2.7 9.34 1 9 C2.29299694 6.11562221 3.65941363 4.12780579 6 2 C3.03 1.505 3.03 1.505 0 1 C0 0.67 0 0.34 0 0 Z " fill="#ABACBC" transform="translate(60,128)"/>
<path d="M0 0 C0.33 1.32 0.66 2.64 1 4 C-0.65 5.32 -2.3 6.64 -4 8 C-3.01 8.33 -2.02 8.66 -1 9 C-1.66 10.32 -2.32 11.64 -3 13 C-5.97 12.505 -5.97 12.505 -9 12 C-9 9 -9 9 -7.28515625 7.24609375 C-6.55167969 6.64925781 -5.81820312 6.05242188 -5.0625 5.4375 C-2.07351045 3.08714476 -2.07351045 3.08714476 0 0 Z " fill="#9A999F" transform="translate(85,25)"/>
<path d="M0 0 C3.3 0 6.6 0 10 0 C7.66666667 2.33333333 5.33333333 4.66666667 3 7 C2.01 7 1.02 7 0 7 C0 4.69 0 2.38 0 0 Z " fill="#E8E8E8" transform="translate(52,93)"/>
<path d="M0 0 C0.66 1.32 1.32 2.64 2 4 C1.36771484 4.74443359 1.36771484 4.74443359 0.72265625 5.50390625 C-2.9597693 10.07011394 -4.75459355 13.11024529 -5 19 C-5.33 19 -5.66 19 -6 19 C-6.92017937 8.62242152 -6.92017937 8.62242152 -4.6640625 4.64453125 C-3.18840574 2.9644995 -1.70676104 1.44261945 0 0 Z " fill="#3060AB" transform="translate(134,65)"/>
<path d="M0 0 C0.84804462 2.37452495 1.13206993 3.6097934 0.3125 6.03125 C-1.38628797 8.57943196 -2.71562479 8.91874994 -5.625 9.75 C-6.85089844 10.11351563 -6.85089844 10.11351563 -8.1015625 10.484375 C-9.04128906 10.73960938 -9.04128906 10.73960938 -10 11 C-10 10.01 -10 9.02 -10 8 C-8.3203125 6.46484375 -8.3203125 6.46484375 -6.125 4.9375 C-3.88986913 3.36329493 -1.93742034 1.93742034 0 0 Z " fill="#A3A2A4" transform="translate(70,60)"/>
<path d="M0 0 C4.29 0 8.58 0 13 0 C12.67 1.98 12.34 3.96 12 6 C11.67 5.01 11.34 4.02 11 3 C7.37 3 3.74 3 0 3 C0 2.01 0 1.02 0 0 Z " fill="#838383" transform="translate(102,131)"/>
<path d="M0 0 C1.65993521 4.80507559 1.65993521 4.80507559 1 8 C-2.19857511 11.66665927 -5.75503355 14.61696366 -10 17 C-12.36328125 16.74609375 -12.36328125 16.74609375 -14 16 C-12.989375 15.505 -11.97875 15.01 -10.9375 14.5 C-6.31783241 11.89790152 -3.2719991 8.09745784 0 4 C-1.32 4 -2.64 4 -4 4 C-4 3.01 -4 2.02 -4 1 C-2 0 -2 0 0 0 Z " fill="#C2C2C2" transform="translate(85,17)"/>
<path d="M0 0 C4.29 0.33 8.58 0.66 13 1 C12.67 2.32 12.34 3.64 12 5 C7.71 4.67 3.42 4.34 -1 4 C-0.67 2.68 -0.34 1.36 0 0 Z " fill="#CCCCCC" transform="translate(106,123)"/>
<path d="M0 0 C1.16959987 0.97566112 2.33561177 1.955625 3.5 2.9375 C4.1496875 3.48277344 4.799375 4.02804688 5.46875 4.58984375 C6.22671875 5.28787109 6.22671875 5.28787109 7 6 C7 6.33 7 6.66 7 7 C3.04 7 -0.92 7 -5 7 C-4.01 5.68 -3.02 4.36 -2 3 C-1.34 3 -0.68 3 0 3 C0 2.01 0 1.02 0 0 Z " fill="#A8A8AA" transform="translate(59,85)"/>
<path d="M0 0 C0.5625 1.9375 0.5625 1.9375 1 4 C-0.81115956 5.81115956 -3.61278227 5.38199448 -6.0625 5.5625 C-7.16722656 5.64628906 -8.27195312 5.73007812 -9.41015625 5.81640625 C-10.69212891 5.90728516 -10.69212891 5.90728516 -12 6 C-12.33 5.01 -12.66 4.02 -13 3 C-10.35541621 1.67770811 -8.32238699 1.90322806 -5.375 1.9375 C-3.87066406 1.95103516 -3.87066406 1.95103516 -2.3359375 1.96484375 C-1.56507812 1.97644531 -0.79421875 1.98804688 0 2 C0 1.34 0 0.68 0 0 Z " fill="#7D7D7D" transform="translate(116,55)"/>
<path d="M0 0 C0.33 1.32 0.66 2.64 1 4 C-0.24196122 5.15454162 -1.49392845 6.29832562 -2.75 7.4375 C-3.79414062 8.39462891 -3.79414062 8.39462891 -4.859375 9.37109375 C-6.98792725 10.99081325 -8.39023405 11.58267256 -11 12 C-11 11.01 -11 10.02 -11 9 C-9.35546875 7.4296875 -9.35546875 7.4296875 -7.1875 5.875 C-6.47980469 5.35679688 -5.77210937 4.83859375 -5.04296875 4.3046875 C-3 3 -3 3 0 2 C0 1.34 0 0.68 0 0 Z " fill="#CECECE" transform="translate(68,45)"/>
<path d="M0 0 C4.62 0 9.24 0 14 0 C13.67 1.32 13.34 2.64 13 4 C11.39592672 4.02708567 9.7917215 4.04643483 8.1875 4.0625 C6.84751953 4.07990234 6.84751953 4.07990234 5.48046875 4.09765625 C3 4 3 4 0 3 C0 2.01 0 1.02 0 0 Z " fill="#A1A1A1" transform="translate(110,108)"/>
<path d="M0 0 C0.33 0 0.66 0 1 0 C0.6297613 6.4174708 0.6297613 6.4174708 -2.5 9.3125 C-3.7375 10.1478125 -3.7375 10.1478125 -5 11 C-5.33 11.66 -5.66 12.32 -6 13 C-7.32 12.67 -8.64 12.34 -10 12 C-7.93432136 9.24576181 -6.02306625 7.01823843 -3.3125 4.875 C-0.74752211 3.13879023 -0.74752211 3.13879023 0 0 Z " fill="#ADACAE" transform="translate(65,92)"/>
<path d="M0 0 C0 2.31 0 4.62 0 7 C-2.31 7.33 -4.62 7.66 -7 8 C-6.65930765 4.84859577 -6.41923159 3.39218439 -4.0625 1.1875 C-2 0 -2 0 0 0 Z " fill="#88888B" transform="translate(60,121)"/>
<path d="M0 0 C4.29 0 8.58 0 13 0 C12.67 0.99 12.34 1.98 12 3 C8.04 3 4.08 3 0 3 C0 2.01 0 1.02 0 0 Z " fill="#555555" transform="translate(112,96)"/>
<path d="M0 0 C0.99 0.33 1.98 0.66 3 1 C1.48328036 5.55015893 -2.16891053 7.50057264 -6 10 C-6.33 9.01 -6.66 8.02 -7 7 C-5.47005208 5.76302083 -3.94010417 4.52604167 -2.41015625 3.2890625 C-0.86733563 2.0333609 -0.86733563 2.0333609 0 0 Z " fill="#C4C4C4" transform="translate(81,160)"/>
<path d="M0 0 C1.10844919 3.32534757 0.84454356 5.62182575 0 9 C-2.64 9 -5.28 9 -8 9 C-6.8553125 7.88625 -6.8553125 7.88625 -5.6875 6.75 C-3.5606298 4.5736677 -1.7440044 2.47832204 0 0 Z " fill="#86858B" transform="translate(59,75)"/>
<path d="M0 0 C0 3.90838866 -1.50567876 5.11594107 -4 8 C-3.34 8.66 -2.68 9.32 -2 10 C-4.64 10 -7.28 10 -10 10 C-8.84172638 6.52517915 -7.911812 5.94446638 -5 3.875 C-2.38851475 2.06989989 -2.38851475 2.06989989 0 0 Z " fill="#B0B0B0" transform="translate(68,49)"/>
<path d="M0 0 C0.33 0.99 0.66 1.98 1 3 C2.32 3 3.64 3 5 3 C3.49650623 6.66786393 1.36271208 8.68910393 -1.625 11.25 C-2.44226563 11.95640625 -3.25953125 12.6628125 -4.1015625 13.390625 C-5.04128906 14.18726563 -5.04128906 14.18726563 -6 15 C-6.99 14.67 -7.98 14.34 -9 14 C-8.37351562 13.52949219 -7.74703125 13.05898438 -7.1015625 12.57421875 C-6.28429687 11.95160156 -5.46703125 11.32898437 -4.625 10.6875 C-3.81289062 10.07261719 -3.00078125 9.45773438 -2.1640625 8.82421875 C0.19779389 7.00519317 0.19779389 7.00519317 2 4 C1.01 3.67 0.02 3.34 -1 3 C-0.67 2.01 -0.34 1.02 0 0 Z " fill="#D8D8D8" transform="translate(80,18)"/>
<path d="M0 0 C5.94 0.99 5.94 0.99 12 2 C11.67 2.99 11.34 3.98 11 5 C9.02013918 4.88652381 7.04108402 4.7589065 5.0625 4.625 C3.96035156 4.55539063 2.85820313 4.48578125 1.72265625 4.4140625 C0.82417969 4.27742187 -0.07429688 4.14078125 -1 4 C-1.33 3.34 -1.66 2.68 -2 2 C-1.34 2 -0.68 2 0 2 C0 1.34 0 0.68 0 0 Z " fill="#414141" transform="translate(97,136)"/>
<path d="M0 0 C-0.875 4.75 -0.875 4.75 -2 7 C-3.9375 6.25 -3.9375 6.25 -6 5 C-6.75 2.875 -6.75 2.875 -7 1 C-4.50935112 0.31292445 -2.62113708 0 0 0 Z " fill="#9198A0" transform="translate(120,24)"/>
<path d="M0 0 C0.33 0.99 0.66 1.98 1 3 C-3.62 3.33 -8.24 3.66 -13 4 C-13 3.01 -13 2.02 -13 1 C-6.565 0.505 -6.565 0.505 0 0 Z " fill="#434343" transform="translate(112,51)"/>
<path d="M0 0 C3.18141867 -0.46557346 5.25343123 -0.50963377 7.95703125 1.3359375 C9.6935608 2.84258024 11.369718 4.37936464 13 6 C12.01 6.66 11.02 7.32 10 8 C9.0925 7.236875 8.185 6.47375 7.25 5.6875 C4.885444 3.71516893 2.48694058 1.81737966 0 0 Z " fill="#C5D0D9" transform="translate(105,46)"/>
<path d="M0 0 C2.625 0.375 2.625 0.375 5 1 C3.5834979 4.4232134 1.93172851 5.82484659 -1 8 C-1.33 8.99 -1.66 9.98 -2 11 C-2.66 11 -3.32 11 -4 11 C-3.60196439 8.11424181 -3.20990931 7.17810487 -0.9375 5.25 C-0.298125 4.8375 0.34125 4.425 1 4 C-0.05270463 2.84188612 -0.05270463 2.84188612 -2 2 C-1.34 1.34 -0.68 0.68 0 0 Z " fill="#D3D7D9" transform="translate(76,159)"/>
<path d="M0 0 C2.31 0 4.62 0 7 0 C5.92730209 2.59235327 5.16833074 3.8762274 2.875 5.5625 C1.946875 6.2740625 1.946875 6.2740625 1 7 C1 7.99 1 8.98 1 10 C-0.65 10 -2.3 10 -4 10 C1.28571429 3.57142857 1.28571429 3.57142857 4 1 C2.68 0.67 1.36 0.34 0 0 Z " fill="#C9C9C9" transform="translate(63,36)"/>
<path d="M0 0 C1.88391785 3.26545761 2.49287967 6.28111761 3 10 C1.35 10 -0.3 10 -2 10 C-2 6.09567131 -1.31626692 3.61973402 0 0 Z " fill="#7F838D" transform="translate(69,129)"/>
<path d="M0 0 C0.66 0 1.32 0 2 0 C1.46568437 3.85046502 -0.0834262 5.23963932 -3.0625 7.625 C-4.40912172 8.70892398 -5.73088022 9.82628102 -7 11 C-7 11.66 -7 12.32 -7 13 C-8.32 12.67 -9.64 12.34 -11 12 C-11 11.34 -11 10.68 -11 10 C-9.34634594 8.97862543 -7.67623498 7.98387706 -6 7 C-3.87317909 5.42605291 -1.96726313 3.78426191 0 2 C0 1.34 0 0.68 0 0 Z " fill="#C7C7C7" transform="translate(63,92)"/>
<path d="M0 0 C-1.45271122 3.75283733 -1.45271122 3.75283733 -3.9375 4.875 C-6 5 -6 5 -9 3 C-9 2.34 -9 1.68 -9 1 C-5.92677456 0.08941469 -3.19902639 -0.08886184 0 0 Z " fill="#E8E8E8" transform="translate(55,85)"/>
<path d="M0 0 C4.29 0.33 8.58 0.66 13 1 C12.67 2.65 12.34 4.3 12 6 C11.67 5.01 11.34 4.02 11 3 C8.02148438 3.04882812 8.02148438 3.04882812 5.04296875 3.09765625 C3 3 3 3 0 2 C0 1.34 0 0.68 0 0 Z " fill="#565656" transform="translate(98,135)"/>
<path d="M0 0 C6.93 0.495 6.93 0.495 14 1 C13.67 1.66 13.34 2.32 13 3 C8.71 3 4.42 3 0 3 C0 2.01 0 1.02 0 0 Z " fill="#BBBBBB" transform="translate(109,113)"/>
<path d="M0 0 C2.67927341 4.01891012 2.15601248 6.24161923 2 11 C-0.475 10.01 -0.475 10.01 -3 9 C-3 8.01 -3 7.02 -3 6 C-2.34 5.67 -1.68 5.34 -1 5 C-0.34444881 2.47266765 -0.34444881 2.47266765 0 0 Z " fill="#6C6C77" transform="translate(102,168)"/>
<path d="M0 0 C2.0625 0.6875 2.0625 0.6875 4 2 C4.75 4.125 4.75 4.125 5 6 C2.69 5.34 0.38 4.68 -2 4 C-2 3.01 -2 2.02 -2 1 C-1.34 0.67 -0.68 0.34 0 0 Z " fill="#6E6C7B" transform="translate(116,159)"/>
<path d="M0 0 C0.33 0.99 0.66 1.98 1 3 C-0.43359375 4.97265625 -0.43359375 4.97265625 -2.4375 7.0625 C-5.21364146 9.60904471 -5.21364146 9.60904471 -6 13 C-7.32 12.67 -8.64 12.34 -10 12 C-8.85274723 8.55824169 -7.74715348 7.70880725 -5 5.4375 C-2.05040821 3.07789673 -2.05040821 3.07789673 0 0 Z " fill="#B7B7B7" transform="translate(69,139)"/>
<path d="M0 0 C1.60031344 3.20062687 0.03173691 5.72271806 -1 9 C-3.475 8.01 -3.475 8.01 -6 7 C-6 6.34 -6 5.68 -6 5 C-4.04072937 3.2856382 -2.04119788 1.61594832 0 0 Z " fill="#777B81" transform="translate(70,145)"/>
<path d="M0 0 C0.33 0 0.66 0 1 0 C1.3125 2.6875 1.3125 2.6875 1 6 C-1.5 8.875 -1.5 8.875 -4 11 C-3.67 8.36 -3.34 5.72 -3 3 C-2.01 2.67 -1.02 2.34 0 2 C0 1.34 0 0.68 0 0 Z " fill="#66646F" transform="translate(65,101)"/>
<path d="M0 0 C2.31 0 4.62 0 7 0 C6.67 0.99 6.34 1.98 6 3 C3.69 3.33 1.38 3.66 -1 4 C-0.67 2.68 -0.34 1.36 0 0 Z " fill="#D9D8DD" transform="translate(94,16)"/>
<path d="M0 0 C1.65 0.33 3.3 0.66 5 1 C4.360625 1.598125 3.72125 2.19625 3.0625 2.8125 C0.79689611 4.90810337 0.79689611 4.90810337 0 8 C-0.66 8 -1.32 8 -2 8 C-1.125 2.25 -1.125 2.25 0 0 Z " fill="#A8ACB2" transform="translate(96,167)"/>
<path d="M0 0 C-0.33 1.65 -0.66 3.3 -1 5 C-1.66 5 -2.32 5 -3 5 C-3 5.99 -3 6.98 -3 8 C-3.99 7.67 -4.98 7.34 -6 7 C-5.37162381 3.35541809 -4.14650034 0 0 0 Z " fill="#B4B4B4" transform="translate(68,153)"/>
<path d="M0 0 C0.33 0.99 0.66 1.98 1 3 C-0.21484375 5.04296875 -0.21484375 5.04296875 -1.9375 7.1875 C-2.50339844 7.90292969 -3.06929687 8.61835937 -3.65234375 9.35546875 C-4.09707031 9.89816406 -4.54179687 10.44085938 -5 11 C-5.33 10.01 -5.66 9.02 -6 8 C-4.78515625 5.95703125 -4.78515625 5.95703125 -3.0625 3.8125 C-2.49660156 3.09707031 -1.93070313 2.38164063 -1.34765625 1.64453125 C-0.90292969 1.10183594 -0.45820313 0.55914062 0 0 Z " fill="#2C51A4" transform="translate(135,69)"/>
<path d="M0 0 C1.33332095 2.6666419 0.67102033 4.16680303 0 7 C-2.31 7 -4.62 7 -7 7 C-2.25 1.125 -2.25 1.125 0 0 Z " fill="#7E7E8C" transform="translate(103,18)"/>
<path d="M0 0 C0.6875 1.75 0.6875 1.75 1 4 C-0.25 6.25 -0.25 6.25 -2 8 C-2.99 8 -3.98 8 -5 8 C-3.8141763 4.62496331 -2.72426311 2.35277269 0 0 Z " fill="#ABABAB" transform="translate(68,130)"/>
<path d="M0 0 C1 2 1 2 0.4375 4 C-1.57302108 6.79724672 -3.74418077 7.15065585 -7 8 C-5.61918777 3.8575633 -3.40174442 2.67796901 0 0 Z " fill="#7D7C84" transform="translate(70,62)"/>
<path d="M0 0 C0.99 0 1.98 0 3 0 C3 2.31 3 4.62 3 7 C2.34 7 1.68 7 1 7 C1 6.01 1 5.02 1 4 C0.34 4 -0.32 4 -1 4 C-0.67 2.68 -0.34 1.36 0 0 Z " fill="#6E777C" transform="translate(83,170)"/>
<path d="M0 0 C0.66 0 1.32 0 2 0 C2 0.66 2 1.32 2 2 C2.78375 2.144375 3.5675 2.28875 4.375 2.4375 C7 3 7 3 9 4 C9 4.66 9 5.32 9 6 C5.65626525 5.44271087 2.96687001 4.64826111 0 3 C0 2.01 0 1.02 0 0 Z " fill="#DFDFDF" transform="translate(70,168)"/>
<path d="M0 0 C0 1.65 0 3.3 0 5 C-0.99 5.495 -0.99 5.495 -2 6 C-4.125 5.0625 -4.125 5.0625 -6 4 C-2.25 0 -2.25 0 0 0 Z " fill="#77767B" transform="translate(86,29)"/>
<path d="M0 0 C2.1519437 3.22791555 2.20086443 4.28400809 2 8 C0.35 8 -1.3 8 -3 8 C-2.34 7.01 -1.68 6.02 -1 5 C-0.61500109 3.34450469 -0.27206865 1.6777567 0 0 Z " fill="#73717D" transform="translate(70,49)"/>
<path d="M0 0 C0.33 2.64 0.66 5.28 1 8 C0.67 6.68 0.34 5.36 0 4 C-1.32 4 -2.64 4 -4 4 C-4 3.01 -4 2.02 -4 1 C-2 0 -2 0 0 0 Z " fill="#B0AFB5" transform="translate(85,17)"/>
<path d="M0 0 C3 1 3 1 4.1875 3.0625 C4.455625 3.701875 4.72375 4.34125 5 5 C2.36 4.34 -0.28 3.68 -3 3 C-2.01 2.01 -1.02 1.02 0 0 Z " fill="#80939B" transform="translate(80,156)"/>
<path d="M0 0 C0.99 0.33 1.98 0.66 3 1 C2.00102287 3.99693138 1.34869747 5.02709413 -1 7 C-1.66 7 -2.32 7 -3 7 C-3 6.01 -3 5.02 -3 4 C-2.34 3.67 -1.68 3.34 -1 3 C-0.67 2.01 -0.34 1.02 0 0 Z " fill="#CDCDCD" transform="translate(63,152)"/>
<path d="M0 0 C0.515625 0.37125 1.03125 0.7425 1.5625 1.125 C0.5625 2.125 0.5625 2.125 -1.72265625 2.22265625 C-3.09744141 2.20525391 -3.09744141 2.20525391 -4.5 2.1875 C-5.41910156 2.17847656 -6.33820313 2.16945312 -7.28515625 2.16015625 C-7.99542969 2.14855469 -8.70570312 2.13695312 -9.4375 2.125 C-9.4375 1.795 -9.4375 1.465 -9.4375 1.125 C-3.0375 -1.09038462 -3.0375 -1.09038462 0 0 Z " fill="#CAD1DD" transform="translate(108.4375,142.875)"/>
<path d="M0 0 C1.65 1.65 3.3 3.3 5 5 C3.02 5 1.04 5 -1 5 C-0.67 3.35 -0.34 1.7 0 0 Z " fill="#7C7B86" transform="translate(61,87)"/>
<path d="M0 0 C0 3 0 3 -1 6 C-2.98 6 -4.96 6 -7 6 C-6.21625 5.38125 -5.4325 4.7625 -4.625 4.125 C-2.03162353 2.10141339 -2.03162353 2.10141339 0 0 Z " fill="#86848F" transform="translate(70,39)"/>
</svg>